<?xml version="1.0" encoding="UTF-8"?> <svg xmlns="http://www.w3.org/2000/svg" xmlns:xlink="http://www.w3.org/1999/xlink" viewBox="0 0 151.28 151.28"><defs><style>.cls-1{fill:url(#linear-gradient);}.cls-2{fill:url(#linear-gradient-2);}.cls-3{fill:url(#linear-gradient-3);}.cls-4{fill:url(#linear-gradient-4);}.cls-5{fill:url(#linear-gradient-5);}.cls-6{fill:url(#linear-gradient-6);}.cls-7{fill:url(#linear-gradient-7);}.cls-8{fill:url(#linear-gradient-8);}.cls-9{fill:url(#linear-gradient-9);}.cls-10{fill:url(#linear-gradient-10);}.cls-11{fill:url(#linear-gradient-11);}.cls-12{fill:url(#linear-gradient-12);}.cls-13{fill:url(#linear-gradient-13);}.cls-14{fill:url(#linear-gradient-14);}.cls-15{fill:url(#linear-gradient-15);}.cls-16{fill:url(#linear-gradient-16);}.cls-17{fill:url(#linear-gradient-17);}.cls-18{fill:url(#linear-gradient-18);}.cls-19{fill:url(#linear-gradient-19);}.cls-20{fill:url(#linear-gradient-20);}.cls-21{fill:url(#linear-gradient-21);}.cls-22{fill:url(#linear-gradient-22);}.cls-23{fill:url(#linear-gradient-23);}.cls-24{fill:url(#linear-gradient-24);}.cls-25{fill:url(#linear-gradient-25);}.cls-26{fill:url(#linear-gradient-26);}.cls-27{fill:url(#linear-gradient-27);}.cls-28{fill:url(#linear-gradient-28);}.cls-29{fill:url(#linear-gradient-29);}.cls-30{fill:url(#linear-gradient-30);}.cls-31{fill:url(#linear-gradient-31);}.cls-32{fill:url(#linear-gradient-32);}.cls-33{fill:url(#linear-gradient-33);}.cls-34{fill:url(#linear-gradient-34);}.cls-35{fill:url(#linear-gradient-35);}.cls-36{fill:url(#linear-gradient-36);}.cls-37{fill:url(#linear-gradient-37);}.cls-38{fill:url(#linear-gradient-38);}.cls-39{fill:url(#linear-gradient-39);}.cls-40{fill:url(#linear-gradient-40);}.cls-41{fill:url(#linear-gradient-41);}.cls-42{fill:url(#linear-gradient-42);}.cls-43{fill:url(#linear-gradient-43);}.cls-44{fill:url(#linear-gradient-44);}.cls-45{fill:url(#linear-gradient-45);}</style><linearGradient id="linear-gradient" x1="-40.65" y1="9.74" x2="201.44" y2="187.86" gradientUnits="userSpaceOnUse"><stop offset="0.01" stop-color="#eec880"></stop><stop offset="0.1" stop-color="#f2d68e"></stop><stop offset="0.32" stop-color="#f8f0e3"></stop><stop offset="0.54" stop-color="#c98e28"></stop><stop offset="0.65" stop-color="#c78c23"></stop><stop offset="0.81" stop-color="#c3840f"></stop><stop offset="0.92" stop-color="#e4b86b"></stop><stop offset="0.95" stop-color="#eec786"></stop></linearGradient><linearGradient id="linear-gradient-2" x1="-34" y1="0.69" x2="208.1" y2="178.81" xlink:href="#linear-gradient"></linearGradient><linearGradient id="linear-gradient-3" x1="-25.28" y1="-11.15" x2="216.81" y2="166.97" xlink:href="#linear-gradient"></linearGradient><linearGradient id="linear-gradient-4" x1="-18.63" y1="-20.2" x2="223.47" y2="157.92" xlink:href="#linear-gradient"></linearGradient><linearGradient id="linear-gradient-5" x1="-3.66" y1="-40.54" x2="238.43" y2="137.58" xlink:href="#linear-gradient"></linearGradient><linearGradient id="linear-gradient-6" x1="1.52" y1="-47.57" x2="243.61" y2="130.54" xlink:href="#linear-gradient"></linearGradient><linearGradient id="linear-gradient-7" x1="-1.09" y1="-44.04" x2="241.01" y2="134.08" xlink:href="#linear-gradient"></linearGradient><linearGradient id="linear-gradient-8" x1="-6.89" y1="-36.15" x2="235.21" y2="141.97" xlink:href="#linear-gradient"></linearGradient><linearGradient id="linear-gradient-9" x1="-5.08" y1="-38.61" x2="237.01" y2="139.51" xlink:href="#linear-gradient"></linearGradient><linearGradient id="linear-gradient-10" x1="-32.36" y1="-1.54" x2="209.74" y2="176.58" xlink:href="#linear-gradient"></linearGradient><linearGradient id="linear-gradient-11" x1="-38.29" y1="6.53" x2="203.8" y2="184.65" xlink:href="#linear-gradient"></linearGradient><linearGradient id="linear-gradient-12" x1="-14.41" y1="-25.93" x2="227.68" y2="152.19" xlink:href="#linear-gradient"></linearGradient><linearGradient id="linear-gradient-13" x1="-20.46" y1="-17.71" x2="221.63" y2="160.41" xlink:href="#linear-gradient"></linearGradient><linearGradient id="linear-gradient-14" x1="-26.49" y1="-9.51" x2="215.6" y2="168.61" xlink:href="#linear-gradient"></linearGradient><linearGradient id="linear-gradient-15" x1="-39.59" y1="8.3" x2="202.5" y2="186.42" xlink:href="#linear-gradient"></linearGradient><linearGradient id="linear-gradient-16" x1="-64.82" y1="42.59" x2="177.27" y2="220.71" xlink:href="#linear-gradient"></linearGradient><linearGradient id="linear-gradient-17" x1="-58.26" y1="33.67" x2="183.83" y2="211.79" xlink:href="#linear-gradient"></linearGradient><linearGradient id="linear-gradient-18" x1="-51.69" y1="24.75" x2="190.4" y2="202.87" xlink:href="#linear-gradient"></linearGradient><linearGradient id="linear-gradient-19" x1="-46.09" y1="17.13" x2="196" y2="195.25" xlink:href="#linear-gradient"></linearGradient><linearGradient id="linear-gradient-20" x1="-65.38" y1="43.34" x2="176.72" y2="221.46" xlink:href="#linear-gradient"></linearGradient><linearGradient id="linear-gradient-21" x1="-68.68" y1="47.84" x2="173.41" y2="225.96" xlink:href="#linear-gradient"></linearGradient><linearGradient id="linear-gradient-22" x1="-72.21" y1="52.63" x2="169.88" y2="230.75" xlink:href="#linear-gradient"></linearGradient><linearGradient id="linear-gradient-23" x1="-63.65" y1="41" x2="178.44" y2="219.12" xlink:href="#linear-gradient"></linearGradient><linearGradient id="linear-gradient-24" x1="-60.44" y1="36.64" x2="181.65" y2="214.76" xlink:href="#linear-gradient"></linearGradient><linearGradient id="linear-gradient-25" x1="-64.63" y1="42.33" x2="177.46" y2="220.44" xlink:href="#linear-gradient"></linearGradient><linearGradient id="linear-gradient-26" x1="-58.29" y1="33.71" x2="183.8" y2="211.83" xlink:href="#linear-gradient"></linearGradient><linearGradient id="linear-gradient-27" x1="-62.41" y1="39.31" x2="179.68" y2="217.43" xlink:href="#linear-gradient"></linearGradient><linearGradient id="linear-gradient-28" x1="-59.71" y1="35.64" x2="182.38" y2="213.76" xlink:href="#linear-gradient"></linearGradient><linearGradient id="linear-gradient-29" x1="-56.61" y1="31.43" x2="185.48" y2="209.55" xlink:href="#linear-gradient"></linearGradient><linearGradient id="linear-gradient-30" x1="-24.78" y1="-11.83" x2="217.31" y2="166.29" xlink:href="#linear-gradient"></linearGradient><linearGradient id="linear-gradient-31" x1="-36.57" y1="4.19" x2="205.52" y2="182.31" xlink:href="#linear-gradient"></linearGradient><linearGradient id="linear-gradient-32" x1="-30.71" y1="-3.77" x2="211.38" y2="174.35" xlink:href="#linear-gradient"></linearGradient><linearGradient id="linear-gradient-33" x1="-48.67" y1="20.64" x2="193.42" y2="198.76" xlink:href="#linear-gradient"></linearGradient><linearGradient id="linear-gradient-34" x1="-42.64" y1="12.45" x2="199.45" y2="190.57" xlink:href="#linear-gradient"></linearGradient><linearGradient id="linear-gradient-35" x1="2.54" y1="-48.96" x2="244.63" y2="129.16" xlink:href="#linear-gradient"></linearGradient><linearGradient id="linear-gradient-36" x1="-4.01" y1="-40.06" x2="238.08" y2="138.06" xlink:href="#linear-gradient"></linearGradient><linearGradient id="linear-gradient-37" x1="-10.74" y1="-30.92" x2="231.35" y2="147.2" xlink:href="#linear-gradient"></linearGradient><linearGradient id="linear-gradient-38" x1="-16.33" y1="-23.32" x2="225.76" y2="154.8" xlink:href="#linear-gradient"></linearGradient><linearGradient id="linear-gradient-39" x1="-22.81" y1="-14.52" x2="219.29" y2="163.6" xlink:href="#linear-gradient"></linearGradient><linearGradient id="linear-gradient-40" x1="11.16" y1="-60.67" x2="253.25" y2="117.44" xlink:href="#linear-gradient"></linearGradient><linearGradient id="linear-gradient-41" x1="8.07" y1="-56.49" x2="250.17" y2="121.63" xlink:href="#linear-gradient"></linearGradient><linearGradient id="linear-gradient-42" x1="1.01" y1="-46.88" x2="243.1" y2="131.24" xlink:href="#linear-gradient"></linearGradient><linearGradient id="linear-gradient-43" x1="-2.29" y1="-42.4" x2="239.8" y2="135.72" xlink:href="#linear-gradient"></linearGradient><linearGradient id="linear-gradient-44" x1="2.79" y1="-49.31" x2="244.89" y2="128.81" xlink:href="#linear-gradient"></linearGradient><linearGradient id="linear-gradient-45" x1="4.53" y1="-51.67" x2="246.62" y2="126.45" xlink:href="#linear-gradient"></linearGradient></defs><g id="Layer_2" data-name="Layer 2"><g id="Layer_1-2" data-name="Layer 1"><polygon class="cls-1" points="49.81 79.65 55.81 79.65 55.81 76.59 49.81 76.59 49.81 71.89 56.96 71.89 56.96 68.84 46.2 68.84 46.2 86.35 57.19 86.35 57.19 83.3 49.81 83.3 49.81 79.65"></polygon><path class="cls-2" d="M71.54,68.84H65.69V86.35h5.85c5.68,0,9.51-3.18,9.51-8.75S77.22,68.84,71.54,68.84Zm0,14.46H69.29V71.89h2.28c3.28,0,5.83,1.9,5.83,5.73S74.85,83.3,71.57,83.3Z"></path><path class="cls-3" d="M95.33,68.54c-5.25,0-9.38,3.75-9.38,9.06s4.13,9.05,9.38,9.05,9.38-3.75,9.38-9.05S100.59,68.54,95.33,68.54Zm0,15a6,6,0,1,1,5.73-6A5.7,5.7,0,0,1,95.33,83.55Z"></path><rect class="cls-4" x="91.84" y="61.69" width="6.89" height="3.84"></rect><path class="cls-5" d="M74.85,34.44V0C73,0,71.24.1,69.46.25v28.8Z"></path><path class="cls-6" d="M91,37.66a40.32,40.32,0,0,1,5.39,2.67V2.89c-.77-.22-1.54-.43-2.32-.62-1-.26-2-.49-3.07-.7V37.66Z"></path><path class="cls-7" d="M85.64,35.9V.65L84.15.47C82.86.33,81.56.21,80.25.14V34.92A41.32,41.32,0,0,1,85.64,35.9Z"></path><path class="cls-8" d="M53.28,12.87V3.36c-.88.27-1.76.56-2.63.86s-1.85.67-2.77,1V7.47Z"></path><path class="cls-9" d="M64.07,23.66V.88c-.77.12-1.53.24-2.29.38-1,.2-2.08.41-3.11.65V18.26Z"></path><path class="cls-10" d="M32.93,45.92,16.05,29c-.43.56-.86,1.12-1.28,1.69-.66.9-1.31,1.81-1.93,2.73L25.3,45.92Z"></path><path class="cls-11" d="M17.67,45.92,9.92,38.17q-.72,1.24-1.38,2.52c-.43.82-.84,1.65-1.24,2.49L10,45.92Z"></path><path class="cls-12" d="M47.88,22.73l5.4,5.4,5.39,5.39,2.94,2.94.5.49a41.63,41.63,0,0,1,6-1.6l-.06-.07-4-4-5.4-5.39L53.28,20.5l-5.4-5.4L42.49,9.71,41.1,8.32l-.28.15q-2.35,1.21-4.6,2.6l6.27,6.27Z"></path><path class="cls-13" d="M47.88,38l3.06,3.06L52,42.14a40.71,40.71,0,0,1,4.74-2.88L56,38.44l-2.68-2.69-5.4-5.39L42.49,25,31.63,14.11c-1.47,1.06-2.91,2.17-4.3,3.32L42.49,32.59Z"></path><path class="cls-14" d="M42.49,45.92h4.95l.38-.36-1.34-1.34h0l-4-4L23.3,21q-1.95,1.88-3.76,3.87l21,21Z"></path><path class="cls-15" d="M20.83,56.71H39.3a40.64,40.64,0,0,1,3.37-5.4H4Q3.1,54,2.39,56.71H20.83Z"></path><path class="cls-16" d="M14.76,94.47H2.36q.51,1.95,1.11,3.87c.16.51.32,1,.49,1.52h5.4Z"></path><path class="cls-17" d="M25.55,83.68H.42c.12,1.08.25,2.15.41,3.21.11.73.23,1.46.36,2.18h19Z"></path><path class="cls-18" d="M32.86,76.36l1.7-1.69h0l.12-.12c0-.55,0-1.1.08-1.65H.05c0,.24,0,.48,0,.72,0,.67,0,1.35,0,2,0,.88,0,1.76.05,2.64H30.94Z"></path><path class="cls-19" d="M31.62,67.5h3.86A40.57,40.57,0,0,1,37,62.1H1.21Q.73,64.77.43,67.5H31.62Z"></path><path class="cls-20" d="M46,105.25v-1.37c-.4-.42-.79-.85-1.18-1.29l-2.67,2.66L20.24,127.13l.61.66c1,1.08,2.1,2.14,3.2,3.16L46,109Z"></path><path class="cls-21" d="M46,116.66,28.13,134.49c.88.71,1.77,1.4,2.68,2.07q.82.62,1.68,1.2L46,124.29Z"></path><path class="cls-22" d="M46,131.92l-8.83,8.83c1.19.71,2.41,1.38,3.64,2l1.3.67,3.89-3.9Z"></path><path class="cls-23" d="M39.88,99.86l1.6-1.6a40.1,40.1,0,0,1-2.77-4.86l-1.07,1.07-5.39,5.39-5.39,5.39L13.43,118.68c1,1.49,2.13,2.95,3.27,4.36l17.78-17.79Z"></path><path class="cls-24" d="M24.62,99.86,30,94.47l5.39-5.4,1.14-1.14a40.8,40.8,0,0,1-1.43-6.2l-1.95,2-5.39,5.39-5.39,5.4L17,99.86l-5.39,5.39-3.82,3.83q1.24,2.52,2.67,5l8.78-8.78Z"></path><path class="cls-25" d="M56.75,128.76V112a40.86,40.86,0,0,1-5.39-3.36v38.65q2.66.9,5.39,1.61V128.76Z"></path><path class="cls-26" d="M83.72,125.55v25.3c1.19-.13,2.37-.28,3.53-.46l1.87-.31V130.94Z"></path><path class="cls-27" d="M67.54,118V115.8a40.4,40.4,0,0,1-5.39-1.47v35.74q2.66.48,5.39.78V118Z"></path><path class="cls-28" d="M75.66,117.48l-.89-.88c-.61,0-1.23,0-1.83-.08v34.71l1.1,0,1.6,0c.9,0,1.8,0,2.69-.05V120.15Z"></path><path class="cls-29" d="M94.51,136.34V148.9c1.4-.36,2.78-.76,4.15-1.19l1.25-.41v-5.57Z"></path><path class="cls-30" d="M132,105.15l8.85,8.85c.73-1.24,1.43-2.5,2.09-3.78l.59-1.17-3.9-3.9Z"></path><path class="cls-31" d="M105.3,105.15h-1.25c-.44.43-.89.84-1.34,1.24L105.3,109l22,22,.84-.79q1.53-1.47,3-3l-22-22Z"></path><path class="cls-32" d="M116.73,105.15,134.6,123c.75-.93,1.48-1.88,2.18-2.84.37-.51.73-1,1.08-1.52l-13.5-13.51Z"></path><path class="cls-33" d="M99.91,126.47l-5.4-5.39-5.39-5.4-1-1a39.69,39.69,0,0,1-6.18,1.45l1.79,1.8,5.4,5.39,5.39,5.4,5.4,5.39,5.39,5.4,3.93,3.92c1.68-.83,3.33-1.73,4.94-2.68l-8.87-8.87Z"></path><path class="cls-34" d="M99.91,111.22l-1.51-1.51a41.41,41.41,0,0,1-4.85,2.78l1,1,5.4,5.39,5.39,5.4,13.51,13.51q2.25-1.56,4.36-3.27L105.3,116.61Z"></path><path class="cls-35" d="M137.46,56.61h11.4c-.22-.88-.47-1.76-.73-2.63s-.57-1.85-.88-2.77h-4.39Z"></path><path class="cls-36" d="M126.67,67.4h24.16c-.06-.61-.13-1.21-.21-1.81-.16-1.21-.35-2.4-.57-3.59h-18Z"></path><path class="cls-37" d="M118.08,76l-1.51,1.51c0,.23,0,.46,0,.68h34.71c0-.84,0-1.69,0-2.54s0-1.91-.05-2.85H121.28Z"></path><path class="cls-38" d="M118,83.58h-2.2A40.75,40.75,0,0,1,114.39,89h35.72c.31-1.78.57-3.57.76-5.39H118Z"></path><path class="cls-39" d="M128.83,94.37H112.09a42.43,42.43,0,0,1-3.33,5.39h38.59c.59-1.77,1.13-3.57,1.59-5.39H128.83Z"></path><path class="cls-40" d="M104.47,5.69l-.4-.17c-.74-.3-1.49-.59-2.24-.87V8.33Z"></path><path class="cls-41" d="M101.83,23.59,114.62,10.8l-.59-.35q-2.13-1.26-4.33-2.37L101.83,16Z"></path><path class="cls-42" d="M117.74,45.82l-5.4,5.39-2.24,2.25a41.87,41.87,0,0,1,2.71,4.92l1.77-1.77,5.39-5.4,5.4-5.39,6.53-6.53L138.15,33q-1.54-2.25-3.24-4.39l-9.18,9.19Z"></path><path class="cls-43" d="M133,45.82l-5.39,5.39-5.39,5.4L116.81,62l-1.9,1.91a41.94,41.94,0,0,1,1.34,6.28l2.8-2.79,5.39-5.4,5.39-5.39,5.4-5.4,5.39-5.39,3.13-3.13c-.82-1.69-1.71-3.35-2.65-5l-3,3Z"></path><path class="cls-44" d="M103.08,45.22a38.18,38.18,0,0,1,3.76,3.87l3.27-3.27,9.45-9.45L131.4,24.53q-1.83-2-3.79-3.84L113.38,34.91Z"></path><path class="cls-45" d="M101.83,32.18v6.67l5.38-5.39,16.35-16.35c-1.4-1.15-2.85-2.25-4.33-3.3l-17.4,17.41Z"></path></g></g></svg> 