<svg width="112" height="29" viewBox="0 0 112 29" fill="none" xmlns="http://www.w3.org/2000/svg">
<g clip-path="url(#clip0_2_229)">
<path d="M0 14.8539V13.0913C0.00285307 11.9672 0.228816 10.8545 0.665906 9.81655C1.23766 8.40029 2.31384 7.24137 3.6913 6.55949C4.36006 6.23253 5.08417 6.02939 5.8271 5.96034C7.18003 5.83823 8.54265 6.05506 9.78887 6.59144C10.529 6.89444 11.2445 7.26305 11.9692 7.60656C13.2668 8.21997 14.5643 8.84023 15.8613 9.45706C15.9161 9.48845 15.984 9.48845 16.0394 9.45706C17.8494 8.59144 19.6668 7.73324 21.4767 6.87332C22.2425 6.49786 23.0551 6.22454 23.8939 6.06077C25.228 5.78231 26.6157 5.90556 27.8785 6.41341C29.0494 6.90071 30.0359 7.74009 30.6996 8.81227C31.2434 9.68074 31.6029 10.6502 31.7569 11.6608C31.8459 12.2108 31.8899 12.7672 31.8887 13.3247V16.3598C31.9047 17.4086 31.7364 18.4522 31.3923 19.4439C30.9803 20.6668 30.2003 21.735 29.1566 22.5053C28.3989 23.0536 27.5184 23.412 26.59 23.5506C25.2 23.7675 23.867 23.533 22.5695 23.0308C21.9732 22.7809 21.3906 22.5001 20.8234 22.1903L16.0519 19.7224C15.992 19.683 15.9144 19.683 15.8545 19.7224C13.9486 20.7078 12.0491 21.695 10.1449 22.6679C9.26562 23.1238 8.3127 23.4263 7.32953 23.5615C5.86476 23.7572 4.48217 23.5489 3.18973 22.798C2.17518 22.1966 1.36205 21.3127 0.851355 20.2565C0.456491 19.4616 0.201427 18.6057 0.0970043 17.7253C0.0370899 17.2579 0.00798859 16.7866 0.00970043 16.3153V14.8556L0.000570613 14.8539H0ZM18.3903 10.8334C18.7224 11.0719 19.018 11.3572 19.2679 11.6796C20.0839 12.7215 20.428 14.0522 20.2185 15.3544C20.0656 16.5384 19.4528 17.6163 18.5101 18.3598C18.4542 18.4031 18.4595 18.4419 18.5261 18.4762C19.7934 19.1318 21.0659 19.784 22.3332 20.4397C22.7903 20.6873 23.2662 20.899 23.7569 21.0725C24.5181 21.3481 25.3335 21.4422 26.1381 21.3475C27.3461 21.2031 28.4 20.4665 28.9409 19.3874C29.37 18.5709 29.596 17.6642 29.5994 16.7438C29.6211 15.7407 29.5994 14.7381 29.5994 13.735C29.5994 13.3823 29.5994 13.0474 29.5835 12.709C29.5418 11.9683 29.3643 11.2414 29.0602 10.5641C28.7932 9.95806 28.3835 9.42511 27.8642 9.0097C26.9598 8.30442 25.9207 8.08987 24.7994 8.19715C24.0371 8.2776 23.2947 8.49044 22.6066 8.82653C21.5281 9.33666 20.4491 9.84736 19.3695 10.3598C19.0528 10.5201 18.7287 10.6736 18.3903 10.834V10.8334ZM13.4476 18.4374C13.414 18.4111 13.3906 18.39 13.3638 18.3666C13.0151 18.0973 12.7093 17.7772 12.4576 17.4165C11.7307 16.3872 11.4408 15.1164 11.6514 13.8776C11.8151 12.6913 12.4411 11.6163 13.3957 10.8813C13.449 10.8402 13.4448 10.8056 13.3832 10.7775C12.5626 10.3986 11.7455 10.0003 10.9096 9.60885C10.2334 9.29158 9.5766 8.94408 8.88217 8.66562C7.97033 8.26847 6.97004 8.1127 5.97946 8.21427C5.33923 8.28388 4.72696 8.51213 4.19971 8.87903C3.40999 9.44736 2.83595 10.2628 2.57118 11.1934C2.36006 11.8856 2.25792 12.6063 2.26876 13.3298V16.1977C2.26476 16.5601 2.28131 16.923 2.3184 17.2836C2.38573 18.0225 2.59857 18.7409 2.94494 19.3989C3.24508 19.9723 3.6913 20.4585 4.23909 20.8088C5.0933 21.3515 6.03652 21.473 7.02825 21.3378C7.78602 21.2282 8.51869 20.9897 9.19429 20.6325C9.99144 20.2251 10.796 19.8114 11.5846 19.3989C12.2037 19.0765 12.8143 18.7592 13.4482 18.4385L13.4476 18.4374ZM15.9395 12.2787C15.8203 12.2776 15.701 12.2873 15.5835 12.309C14.9934 12.4282 14.4879 12.8026 14.206 13.3292C13.6553 14.2685 13.7518 15.4474 14.4479 16.2867C14.7926 16.7278 15.3227 16.9874 15.8859 16.992C16.5541 17.0091 17.1817 16.6736 17.5338 16.111C18.1991 15.1609 18.1495 13.8896 17.4128 12.9932C17.0556 12.5469 16.5141 12.285 15.9395 12.2793V12.2787Z" fill="#00B7F0"/>
<path d="M40.8314 18.2063C41.3997 18.2063 41.6839 17.8462 41.6839 17.3155V13.3367H43.0294L46.3829 17.4479C46.7994 17.9974 47.1407 18.2057 47.6525 18.2057C48.4673 18.2057 48.8839 17.5238 48.7892 17.4097L45.208 13.1466C45.4733 13.1278 45.7387 13.0896 45.9846 13.0331C47.8602 12.6354 48.8645 11.3846 48.8645 9.54664C48.8645 7.12153 47.273 5.87075 44.279 5.87075H40.7926C40.1672 5.87075 39.7506 6.3067 39.7506 6.96975V17.2014C39.7506 17.8456 40.0348 18.2057 40.5655 18.2057H40.8308L40.8314 18.2063ZM44.2419 11.8017H41.665V7.48216H44.1849C45.9852 7.48216 46.8942 8.2211 46.8942 9.64193C46.8942 10.968 46.0417 11.8017 44.2414 11.8017H44.2419ZM55.0231 18.3763C56.2739 18.3763 57.2399 18.0539 57.903 17.6374C58.5666 17.2208 58.9073 16.709 58.9073 16.3113C58.9073 15.5153 57.9601 15.3446 57.9224 15.3829C57.4482 16.1977 56.6528 16.899 55.0613 16.899C53.4699 16.899 52.2573 15.9135 51.992 14.4168C51.9732 14.3033 51.9543 14.1891 51.9543 14.0756H58.6807C59.1167 14.0756 59.2491 13.9238 59.2491 13.5261V13.3743C59.2491 10.6456 57.5058 8.78886 54.8725 8.78886C52.2391 8.78886 50.2117 10.8539 50.2117 13.6202C50.2117 16.3866 52.1444 18.3763 55.0242 18.3763H55.0231ZM57.4294 12.806H51.9726C52.2003 11.2904 53.3558 10.2103 54.8525 10.2103C56.3492 10.2103 57.3347 11.2334 57.4294 12.806ZM64.1746 18.3575C66.5244 18.3575 67.964 17.2396 67.964 15.4964C67.964 13.5261 66.0126 13.109 64.6106 12.806C63.1327 12.4836 62.3367 12.2947 62.3367 11.4605C62.3367 10.7027 63.0191 10.2097 64.3076 10.2097C65.4631 10.2097 66.4108 10.7404 66.9792 11.4981C67.0168 11.5552 67.7369 11.214 67.7369 10.6268C67.7369 10.4185 67.6611 10.1909 67.5098 9.98259C67.0739 9.33837 65.9749 8.78886 64.2317 8.78886C62.0148 8.78886 60.594 9.94493 60.594 11.6499C60.594 13.5826 62.4508 13.9991 63.7957 14.2839C65.293 14.6057 66.1455 14.7763 66.1455 15.7047C66.1455 16.4625 65.4254 16.9361 64.1369 16.9361C62.6967 16.9361 61.6736 16.3489 61.0676 15.5717C61.0106 15.5341 60.3287 15.8371 60.3287 16.4242C60.3287 16.8031 60.5746 17.2202 61.0482 17.5609C61.6924 18.0157 62.735 18.3569 64.1746 18.3569V18.3575ZM73.8762 18.1298C78.0822 18.1298 80.6214 15.7994 80.6214 11.9717C80.6214 8.14407 78.1392 5.87075 73.9709 5.87075H70.9769C70.3897 5.87075 69.9349 6.3067 69.9349 6.96975V17.0496C69.9349 17.6368 70.4086 18.1298 71.0151 18.1298H73.8762ZM73.9138 16.4436H71.8676V7.55805H73.9327C76.8884 7.55805 78.6505 9.20655 78.6505 11.9917C78.6505 14.7769 76.9073 16.4442 73.9138 16.4442V16.4436ZM83.6531 7.17859C84.3726 7.17859 84.7709 6.78088 84.7709 6.09842C84.7709 5.41597 84.3726 4.99942 83.6719 4.99942C82.9712 4.99942 82.5347 5.41654 82.5347 6.09842C82.5347 6.7803 82.9518 7.17859 83.6531 7.17859ZM83.7284 18.2063C84.2214 18.2063 84.562 17.998 84.562 17.3155V9.83137C84.562 9.13009 84.2214 8.92182 83.7284 8.92182H83.5389C83.0465 8.92182 82.6864 9.14892 82.6864 9.83137V17.3155C82.6864 17.9974 83.0465 18.2063 83.5389 18.2063H83.7284ZM89.5452 18.3386C90.9284 18.3386 92.1221 17.7515 92.8234 16.766C92.8234 17.0125 92.8611 17.2208 92.8993 17.3914C93.0505 17.998 93.4676 18.2251 93.9795 18.2251C94.3201 18.2251 94.6613 18.1115 94.6613 18.0168V12.4271C94.6613 10.1155 93.2593 8.78943 90.6824 8.78943C89.1287 8.78943 88.0297 9.26304 87.4043 9.83137C86.9877 10.2103 86.7789 10.6274 86.7789 10.968C86.7789 11.8776 87.935 11.8964 87.935 11.8776C88.3521 11.0439 89.1663 10.3238 90.5495 10.3238C92.0086 10.3238 92.8046 11.0816 92.8046 12.4648V12.6542H92.5581C88.4468 12.7301 86.4382 13.6396 86.4382 15.7424C86.4382 17.2961 87.5937 18.3381 89.5452 18.3381V18.3386ZM90 16.9931C88.9204 16.9931 88.2762 16.4819 88.2762 15.667C88.2762 14.4357 89.6399 13.9426 92.2927 13.8479L92.8046 13.8291V14.5304C92.8046 15.9706 91.6297 16.9937 90 16.9937V16.9931ZM97.309 18.2057C97.7826 18.2057 98.1427 17.9974 98.1427 17.315V14.1127C98.1427 12.0094 98.7304 10.5697 100.208 10.5697C100.72 10.5697 101.08 10.7404 101.364 10.9675C101.402 11.0051 101.932 10.721 101.932 10.0014C101.932 9.24364 101.383 8.78886 100.435 8.78886C99.2793 8.78886 98.5215 9.39543 98.1238 10.5133C98.1238 10.2479 98.0862 10.0208 98.0479 9.83137C97.8585 9.11126 97.3849 8.92182 96.9489 8.92182C96.57 8.92182 96.267 9.0736 96.267 9.13009V17.3155C96.267 17.9974 96.6083 18.2063 97.1007 18.2063H97.309V18.2057ZM106.542 21.8245C106.977 21.8245 107.394 21.5969 107.697 20.7826L111.998 9.43309C112.036 9.33837 111.525 8.92125 111.013 8.92125C110.501 8.92125 110.103 9.18658 109.838 10.0202L107.659 16.273L105.196 9.98259C104.893 9.16775 104.533 8.92125 104.002 8.92125C103.396 8.92125 102.979 9.35719 103.017 9.47075L106.276 17.0879C106.427 17.4668 106.655 17.5803 107.072 17.6185L105.556 21.3133C105.518 21.408 106.011 21.8251 106.542 21.8251V21.8245Z" fill="white"/>
<path d="M52.6151 23.5649C52.2362 23.5649 51.9949 23.3652 51.9949 23.0114C51.9949 22.5663 52.3738 22.2497 53.4642 22.0956V21.9957C53.4642 21.7213 53.3187 21.5877 53.0482 21.5877C52.715 21.5877 52.4696 21.7332 52.2534 21.9204L52.0662 21.6956C52.3201 21.4628 52.6488 21.2876 53.0859 21.2876C53.6103 21.2876 53.8186 21.5621 53.8186 22.0203V22.9897C53.8186 23.2562 53.8351 23.4183 53.8807 23.5307H53.5144C53.4853 23.4394 53.4642 23.3515 53.4642 23.2271C53.2188 23.4559 52.9438 23.5643 52.6151 23.5643V23.5649ZM52.719 23.2819C53.01 23.2819 53.2599 23.1609 53.4642 22.9612V22.3455C52.6277 22.4785 52.3487 22.6827 52.3487 22.9572C52.3487 23.1695 52.4902 23.2819 52.719 23.2819ZM55.2816 23.5775C54.7738 23.5775 54.3036 23.186 54.3036 22.4328C54.3036 21.6294 54.8194 21.2882 55.3107 21.2882C55.802 21.2882 56.0388 21.5798 56.1723 21.9044L55.8682 22.0294C55.7598 21.7464 55.5892 21.5923 55.3021 21.5923C54.986 21.5923 54.6653 21.8131 54.6653 22.4328C54.6653 22.9738 54.9233 23.2779 55.2936 23.2779C55.5726 23.2779 55.7432 23.1569 55.8847 22.8368L56.1803 22.9532C56.0097 23.3196 55.7558 23.5775 55.2816 23.5775ZM57.4768 23.5775C56.9689 23.5775 56.4982 23.186 56.4982 22.4328C56.4982 21.6294 57.014 21.2882 57.5053 21.2882C57.9966 21.2882 58.2334 21.5798 58.3663 21.9044L58.0628 22.0294C57.9544 21.7464 57.7837 21.5923 57.4967 21.5923C57.1806 21.5923 56.8599 21.8131 56.8599 22.4328C56.8599 22.9738 57.1178 23.2779 57.4882 23.2779C57.7672 23.2779 57.9378 23.1569 58.0793 22.8368L58.3749 22.9532C58.2043 23.3196 57.9504 23.5775 57.4762 23.5775H57.4768ZM59.6879 23.5775C59.1675 23.5775 58.6933 23.1986 58.6933 22.4328C58.6933 21.6671 59.2257 21.2882 59.6879 21.2882C60.2083 21.2882 60.6037 21.6545 60.6037 22.4494V22.5241H59.0511C59.0636 23.0194 59.3506 23.2859 59.713 23.2859C60.0291 23.2859 60.2083 23.1569 60.3749 22.9281L60.5826 23.1113C60.3789 23.4029 60.0999 23.5775 59.6879 23.5775ZM59.0596 22.2457H60.2625C60.2334 21.8542 60.0457 21.5883 59.6839 21.5883C59.3883 21.5883 59.1093 21.792 59.0596 22.2457ZM61.8146 23.5735C61.4191 23.5735 61.0944 23.4154 60.9158 23.1986L61.1321 22.9823C61.2987 23.1615 61.519 23.2865 61.8191 23.2865C62.1603 23.2865 62.3475 23.1655 62.3475 22.9412C62.3475 22.717 62.1558 22.6377 61.7815 22.5498C61.3153 22.4374 60.9946 22.3124 60.9946 21.8879C60.9946 21.5552 61.2862 21.2887 61.7649 21.2887C62.1518 21.2887 62.4017 21.4137 62.6054 21.6049L62.4183 21.8422C62.2516 21.6882 62.0268 21.5798 61.7815 21.5798C61.4608 21.5798 61.3358 21.7213 61.3358 21.8753C61.3358 22.079 61.511 22.1544 61.8562 22.2331C62.3515 22.3541 62.6927 22.4745 62.6927 22.9281C62.6927 23.3487 62.3138 23.5735 61.8146 23.5735ZM63.9036 23.5735C63.5087 23.5735 63.184 23.4154 63.0049 23.1986L63.2211 22.9823C63.3877 23.1615 63.6086 23.2865 63.9081 23.2865C64.2494 23.2865 64.4365 23.1655 64.4365 22.9412C64.4365 22.717 64.2454 22.6377 63.8705 22.5498C63.4043 22.4374 63.0842 22.3124 63.0842 21.8879C63.0842 21.5552 63.3752 21.2887 63.8539 21.2887C64.2408 21.2887 64.4907 21.4137 64.6944 21.6049L64.5073 21.8422C64.3407 21.6882 64.1158 21.5798 63.8705 21.5798C63.5498 21.5798 63.4254 21.7213 63.4254 21.8753C63.4254 22.079 63.6 22.1544 63.9452 22.2331C64.4405 22.3541 64.7817 22.4745 64.7817 22.9281C64.7817 23.3487 64.4034 23.5735 63.9036 23.5735Z" fill="white"/>
<path d="M51.228 22.4796L49.3489 20.8265C48.9546 20.4808 48.4496 20.2793 47.887 20.2793C46.6739 20.2793 45.6827 21.2636 45.6827 22.4682C45.6827 23.6728 46.6739 24.6571 47.887 24.6571C48.4496 24.6571 48.9546 24.4442 49.3489 24.1099L51.228 22.4796ZM46.3441 22.4796C46.3441 21.6437 47.0294 20.9481 47.8864 20.9481C48.7435 20.9481 49.4288 21.6283 49.4288 22.4796C49.4288 23.331 48.7435 24.0111 47.8864 24.0111C47.0442 23.9997 46.3441 23.3156 46.3441 22.4796Z" fill="#E5173F"/>
<path d="M67.3929 23.5763C67.1875 23.5763 67.0094 23.5364 66.8588 23.4565C66.7081 23.3766 66.5917 23.2539 66.5107 23.089C66.4297 22.9241 66.3892 22.7147 66.3892 22.4602C66.3892 22.2057 66.4337 21.9797 66.5227 21.812C66.6117 21.6442 66.735 21.5204 66.8919 21.4405C67.0505 21.3606 67.232 21.3207 67.4362 21.3207C67.5658 21.3207 67.6827 21.3338 67.7877 21.3601C67.8939 21.3852 67.9835 21.416 68.0571 21.4525L67.9195 21.8217C67.8397 21.7892 67.7575 21.7612 67.6736 21.7389C67.5897 21.7167 67.5093 21.7058 67.4322 21.7058C67.305 21.7058 67.1989 21.7338 67.1138 21.7903C67.03 21.8468 66.9672 21.9307 66.9255 22.0419C66.8845 22.1532 66.8645 22.2913 66.8645 22.4562C66.8645 22.6211 66.8856 22.7506 66.9273 22.8608C66.9695 22.9692 67.0317 23.0519 67.1138 23.1084C67.1966 23.1632 67.2981 23.1911 67.4185 23.1911C67.5389 23.1911 67.6445 23.1769 67.7387 23.1478C67.8328 23.1187 67.9218 23.0816 68.0057 23.0359V23.4365C67.9235 23.4839 67.8351 23.5181 67.7404 23.5409C67.6462 23.5643 67.5304 23.5763 67.3929 23.5763ZM70.2807 22.4448C70.2807 22.6257 70.2574 22.786 70.21 22.9258C70.1632 23.0662 70.0942 23.1843 70.004 23.2813C69.9133 23.3766 69.8049 23.4502 69.6776 23.5016C69.5509 23.5512 69.4071 23.5763 69.2474 23.5763C69.0984 23.5763 68.9615 23.5512 68.8371 23.5016C68.7127 23.4502 68.6043 23.3772 68.513 23.2813C68.4223 23.1843 68.3521 23.0656 68.3024 22.9258C68.2528 22.786 68.2277 22.6251 68.2277 22.4448C68.2277 22.2051 68.2693 22.002 68.3515 21.8359C68.4354 21.6682 68.5546 21.5404 68.7093 21.4531C68.8639 21.3652 69.0477 21.3212 69.2611 21.3212C69.4613 21.3212 69.6382 21.3652 69.7917 21.4531C69.9447 21.5409 70.0645 21.6682 70.1512 21.8359C70.2374 22.0037 70.2807 22.2063 70.2807 22.4448ZM68.7036 22.4448C68.7036 22.6034 68.7224 22.7387 68.7601 22.8516C68.7994 22.964 68.8599 23.0508 68.9409 23.1113C69.022 23.17 69.127 23.1997 69.2554 23.1997C69.3837 23.1997 69.4887 23.17 69.5698 23.1113C69.6508 23.0508 69.7107 22.9646 69.7484 22.8516C69.7866 22.7392 69.8054 22.6034 69.8054 22.4448C69.8054 22.2862 69.7866 22.1521 69.7484 22.0419C69.7107 21.9307 69.6508 21.8462 69.5698 21.7886C69.4887 21.7298 69.3832 21.7001 69.2536 21.7001C69.0619 21.7001 68.9227 21.764 68.8348 21.8924C68.7469 22.0208 68.7036 22.2046 68.7036 22.4448ZM73.1081 21.3212C73.3512 21.3212 73.535 21.384 73.6576 21.5101C73.7826 21.6357 73.8448 21.8377 73.8448 22.115V23.5375H73.3826V22.1977C73.3826 22.0328 73.3506 21.9084 73.2867 21.8245C73.2223 21.7407 73.1247 21.699 72.994 21.699C72.8108 21.699 72.6785 21.7578 72.5969 21.8759C72.517 21.9923 72.477 22.1618 72.477 22.3849V23.5381H72.0154V22.1983C72.0154 22.0882 72.0011 21.9963 71.9726 21.9232C71.9447 21.8485 71.9024 21.7931 71.8448 21.7561C71.7872 21.7178 71.7141 21.699 71.6268 21.699C71.4996 21.699 71.398 21.7281 71.3221 21.7852C71.2474 21.8428 71.1937 21.9278 71.1612 22.0408C71.1281 22.1521 71.1121 22.289 71.1121 22.4516V23.5381H70.6505V21.3635H71.01L71.0745 21.6562H71.1001C71.1447 21.5803 71.1994 21.5181 71.2651 21.4696C71.3318 21.42 71.406 21.3834 71.487 21.3595C71.5686 21.3344 71.6531 21.3224 71.7404 21.3224C71.903 21.3224 72.0399 21.3515 72.1512 21.4091C72.2625 21.4656 72.3458 21.5518 72.4006 21.6682H72.4359C72.5039 21.5501 72.5992 21.4633 72.7207 21.4068C72.8428 21.3504 72.9718 21.3224 73.1081 21.3224V21.3212ZM75.4437 21.3212C75.7016 21.3212 75.9087 21.4154 76.0645 21.6043C76.222 21.7926 76.3001 22.0733 76.3001 22.4454C76.3001 22.6913 76.2636 22.899 76.19 23.0679C76.1181 23.2357 76.0166 23.3623 75.8859 23.4491C75.7564 23.5341 75.6051 23.5769 75.4322 23.5769C75.3221 23.5769 75.2263 23.5626 75.1452 23.5335C75.0642 23.5044 74.9946 23.4673 74.937 23.4217C74.8793 23.3743 74.8308 23.3235 74.7914 23.2688H74.7641C74.7703 23.3213 74.7766 23.3795 74.7817 23.4434C74.788 23.5061 74.7914 23.5638 74.7914 23.6163V24.5024H74.3281V21.3635H74.7053L74.7698 21.6642H74.7914C74.832 21.6026 74.881 21.5455 74.9387 21.493C74.998 21.4405 75.0688 21.3994 75.1509 21.3692C75.2348 21.3378 75.3324 21.3218 75.4437 21.3218V21.3212ZM75.3198 21.6984C75.1932 21.6984 75.091 21.7241 75.0134 21.7749C74.9375 21.8245 74.8822 21.8999 74.8468 22.0009C74.8126 22.1018 74.7943 22.228 74.7914 22.3797V22.4448C74.7914 22.6057 74.808 22.7426 74.8405 22.8551C74.8748 22.9663 74.9307 23.0514 75.0077 23.1107C75.0865 23.1683 75.1926 23.1969 75.3261 23.1969C75.4385 23.1969 75.5315 23.166 75.6051 23.1044C75.6793 23.0428 75.7352 22.9549 75.7718 22.8414C75.8083 22.7272 75.8271 22.5931 75.8271 22.4385C75.8271 22.204 75.7849 22.022 75.701 21.8924C75.6188 21.7629 75.4916 21.6979 75.3198 21.6979V21.6984ZM77.5264 21.3212C77.8014 21.3212 78.0091 21.3823 78.1489 21.5038C78.2904 21.6254 78.3612 21.8154 78.3612 22.0733V23.5369H78.0331L77.9447 23.2288H77.9292C77.8676 23.3076 77.8037 23.372 77.7387 23.4234C77.673 23.4747 77.5971 23.5124 77.5104 23.5375C77.4254 23.5638 77.3215 23.5769 77.1983 23.5769C77.0688 23.5769 76.9529 23.5535 76.8508 23.5061C76.7481 23.4576 76.6676 23.3846 76.6088 23.2859C76.5501 23.1877 76.5204 23.0633 76.5204 22.9127C76.5204 22.689 76.6037 22.5207 76.7698 22.4077C76.9375 22.2953 77.1903 22.2331 77.5281 22.2211L77.9053 22.2074V22.0933C77.9053 21.9426 77.8699 21.8354 77.7991 21.7709C77.7301 21.707 77.632 21.6745 77.5047 21.6745C77.3957 21.6745 77.2907 21.6899 77.1886 21.7218C77.0864 21.7538 76.9866 21.792 76.8896 21.8377L76.7407 21.5118C76.8468 21.4553 76.9672 21.4097 77.1019 21.3743C77.2382 21.3389 77.3797 21.3212 77.5264 21.3212ZM77.9036 22.4979L77.6228 22.5076C77.3923 22.5155 77.2302 22.5549 77.1372 22.6257C77.0442 22.6964 76.998 22.7934 76.998 22.9167C76.998 23.024 77.03 23.1027 77.0939 23.1523C77.1583 23.2009 77.2428 23.2248 77.3478 23.2248C77.5076 23.2248 77.6394 23.1797 77.7444 23.089C77.8505 22.9971 77.9036 22.863 77.9036 22.6862V22.4979ZM79.98 21.3212C80.2248 21.3212 80.4154 21.3846 80.5518 21.5118C80.6893 21.6374 80.7578 21.8399 80.7578 22.119V23.5375H80.2961V22.2057C80.2961 22.0368 80.2619 21.9107 80.1923 21.8268C80.1227 21.7418 80.0154 21.699 79.8699 21.699C79.6593 21.699 79.5127 21.764 79.43 21.8936C79.3489 22.0231 79.3084 22.2114 79.3084 22.4573V23.5375H78.8468V21.3629H79.2063L79.2708 21.6573H79.2964C79.3438 21.5815 79.402 21.5193 79.471 21.4708C79.5418 21.4211 79.6205 21.3834 79.7073 21.3589C79.7946 21.3338 79.8859 21.3218 79.98 21.3218V21.3212ZM80.9153 21.3623H81.418L81.8642 22.604C81.8836 22.6605 81.9013 22.7158 81.9173 22.7712C81.9344 22.8248 81.9486 22.8779 81.9606 22.9304C81.9738 22.9829 81.984 23.0354 81.992 23.0873H82.0034C82.0165 23.0194 82.0348 22.9435 82.0588 22.8596C82.0833 22.7746 82.1113 22.6896 82.1409 22.604L82.5695 21.3623H83.0665L82.1335 23.8354C82.0799 23.9769 82.0137 24.0973 81.935 24.1966C81.8574 24.2976 81.766 24.3735 81.6599 24.4242C81.5538 24.4767 81.4328 24.503 81.2964 24.503C81.2308 24.503 81.1738 24.499 81.1253 24.491C81.0773 24.4847 81.0357 24.4773 81.002 24.4693V24.1001C81.0294 24.107 81.0642 24.1127 81.1059 24.1178C81.1481 24.123 81.1909 24.1258 81.2354 24.1258C81.3181 24.1258 81.3894 24.1093 81.4499 24.0767C81.5098 24.0442 81.5612 23.9974 81.6029 23.9369C81.6451 23.8782 81.6793 23.8108 81.7073 23.7344L81.7837 23.5301L80.9153 21.3612V21.3623Z" fill="white"/>
<path d="M40.9541 21.3213C41.2291 21.3213 41.4368 21.3823 41.5766 21.5039C41.7181 21.6254 41.7889 21.8154 41.7889 22.0733V23.5369H41.4608L41.3723 23.2288H41.3569C41.2953 23.3076 41.232 23.372 41.1663 23.4234C41.1007 23.4748 41.0248 23.5124 40.9387 23.5375C40.8536 23.5638 40.7492 23.5769 40.6265 23.5769C40.497 23.5769 40.3812 23.5535 40.279 23.5061C40.1769 23.4576 40.0964 23.3846 40.0377 23.2859C39.9789 23.1877 39.9492 23.0633 39.9492 22.9127C39.9492 22.689 40.0325 22.5207 40.1986 22.4077C40.3663 22.2953 40.6191 22.2331 40.9569 22.2211L41.3341 22.2074V22.0933C41.3341 21.9427 41.2987 21.8354 41.228 21.7709C41.1584 21.707 41.0602 21.6745 40.9335 21.6745C40.8251 21.6745 40.7195 21.6899 40.6174 21.7218C40.5153 21.7532 40.4154 21.792 40.319 21.8377L40.1695 21.5118C40.2756 21.4554 40.396 21.4097 40.5312 21.3743C40.6676 21.3389 40.8091 21.3213 40.9558 21.3213H40.9541ZM41.3312 22.4979L41.0505 22.5076C40.82 22.5156 40.6585 22.5549 40.5655 22.6257C40.4725 22.6964 40.4257 22.7934 40.4257 22.9167C40.4257 23.024 40.4576 23.1027 40.5221 23.1524C40.586 23.2009 40.6705 23.2248 40.7755 23.2248C40.9352 23.2248 41.0676 23.1797 41.1726 23.089C41.2787 22.9972 41.3318 22.8631 41.3318 22.6862V22.4979H41.3312ZM43.4077 21.3213C43.6525 21.3213 43.8431 21.3846 43.9795 21.5118C44.117 21.6374 44.1855 21.8399 44.1855 22.119V23.5375H43.7238V22.2057C43.7238 22.0368 43.689 21.9107 43.6194 21.8268C43.5498 21.7418 43.4425 21.699 43.297 21.699C43.0859 21.699 42.9392 21.7641 42.8571 21.8936C42.776 22.0231 42.7355 22.2114 42.7355 22.4574V23.5375H42.2739V21.3629H42.6334L42.6984 21.6574H42.7241C42.7715 21.5815 42.8297 21.5193 42.8987 21.4708C42.9695 21.4211 43.0482 21.3835 43.1344 21.3589C43.2223 21.3338 43.313 21.3218 43.4077 21.3218V21.3213Z" fill="white"/>
</g>
<defs>
<clipPath id="clip0_2_229">
<rect width="112" height="19.6571" fill="white" transform="translate(0 5)"/>
</clipPath>
</defs>
</svg>
